<?xml version="1.0" encoding="utf-8"?>
<!-- Generator: Adobe Illustrator 25.0.0, SVG Export Plug-In . SVG Version: 6.00 Build 0)  -->
<svg version="1.1" id="Layer_1" xmlns="http://www.w3.org/2000/svg" xmlns:xlink="http://www.w3.org/1999/xlink" x="0px" y="0px"
	 viewBox="0 0 493.1 246.5" style="enable-background:new 0 0 493.1 246.5;" xml:space="preserve">
<style type="text/css">
	.st0{fill:none;}
	.st1{fill:#F8D905;}
	.st2{fill:#1494B2;}
	.st3{fill:#2DBFCC;}
	.st4{fill:#F47920;}
</style>
<rect x="0.1" y="0.4" class="st0" width="492.1" height="245.3"/>
<rect x="2412.3" y="-170.5" class="st0" width="839.9" height="594.5"/>
<rect x="4135.8" y="-169.2" class="st0" width="839.9" height="594.5"/>
<g>
	<g>
		<path d="M92.1,167.1h1.6l5.1,9.6l5.1-9.6h1.6v13.7h-1.6v-10.4l-5.1,9.6l-5.1-9.6v10.4h-1.6V167.1z"/>
		<path d="M117.6,170.5v10.3h-1.5v-1.7c-0.6,1.1-1.9,1.9-3.4,1.9c-2.3,0-3.9-1.7-3.9-4v-6.6h1.5v6.4c0,1.7,1.1,2.9,2.6,2.9
			c1.7,0,3.2-1.2,3.2-2.7v-6.6H117.6z"/>
		<path d="M120.7,166.9h1.5v14h-1.5V166.9z"/>
		<path d="M130.5,180.4c-0.5,0.4-1.2,0.7-1.9,0.7c-1.5,0-2.5-1.1-2.5-2.6v-6.6h-1.6v-1.3h1.6v-2.8h1.5v2.8h2.5v1.3h-2.5v6.6
			c0,0.8,0.5,1.3,1.1,1.3c0.5,0,0.9-0.2,1.1-0.4L130.5,180.4z"/>
		<path d="M132.3,167.6c0-0.5,0.4-1,1-1c0.5,0,1,0.5,1,1c0,0.5-0.4,1-1,1C132.8,168.6,132.3,168.2,132.3,167.6z M132.6,170.5h1.5
			v10.3h-1.5V170.5z"/>
		<path d="M147.2,175.7c0,3.2-2,5.4-4.8,5.4c-1.7,0-3-0.8-3.8-2.2v5.4h-1.5v-13.8h1.5v1.9c0.8-1.4,2.1-2.2,3.8-2.2
			C145.2,170.3,147.2,172.5,147.2,175.7z M145.6,175.7c0-2.4-1.4-4.1-3.5-4.1c-2,0-3.5,1.7-3.5,4.1s1.4,4.1,3.5,4.1
			C144.2,179.8,145.6,178.1,145.6,175.7z"/>
		<path d="M149.8,166.9h1.5v14h-1.5V166.9z"/>
		<path d="M162.2,178.5l0.9,1c-0.9,1-2.7,1.6-4.2,1.6c-2.8,0-5.2-2.3-5.2-5.4c0-3.1,2.3-5.4,5.1-5.4c3.1,0,4.9,2.4,4.9,6h-8.4
			c0.2,2,1.6,3.5,3.7,3.5C160.2,179.8,161.6,179.2,162.2,178.5z M155.3,174.9h7c-0.2-1.9-1.3-3.3-3.4-3.3
			C157.1,171.6,155.6,172.9,155.3,174.9z"/>
		<path d="M172.1,167.1h1.6v13.7h-1.6V167.1z"/>
		<path d="M191.6,174.3v6.6h-1.5v-6.4c0-1.7-1-2.9-2.4-2.9c-1.6,0-2.8,1.1-2.8,2.7v6.6h-1.5v-6.4c0-1.7-1-2.9-2.4-2.9
			c-1.6,0-2.8,1.1-2.8,2.7v6.6h-1.5v-10.3h1.5v1.5c0.5-1.1,1.6-1.8,3-1.8c1.6,0,2.8,0.9,3.3,2.2c0.4-1.3,1.8-2.2,3.3-2.2
			C190,170.3,191.6,171.9,191.6,174.3z"/>
		<path d="M204.7,175.7c0,3.2-2,5.4-4.8,5.4c-1.7,0-3-0.8-3.8-2.2v5.4h-1.5v-13.8h1.5v1.9c0.8-1.4,2.1-2.2,3.8-2.2
			C202.7,170.3,204.7,172.5,204.7,175.7z M203.2,175.7c0-2.4-1.4-4.1-3.5-4.1c-2,0-3.5,1.7-3.5,4.1s1.4,4.1,3.5,4.1
			C201.7,179.8,203.2,178.1,203.2,175.7z"/>
		<path d="M215.7,174.6v6.3h-1.5v-1.6c-0.7,1.2-2.3,1.9-3.6,1.9c-2.2,0-3.8-1.3-3.8-3.3c0-2.1,1.8-3.4,4.1-3.4
			c1.1,0,2.3,0.2,3.4,0.6v-0.4c0-1.4-0.6-3-2.8-3c-1,0-2.1,0.5-3,0.9l-0.6-1.2c1.5-0.7,2.7-1,3.7-1
			C214.3,170.3,215.7,172.1,215.7,174.6z M214.2,177.6V176c-0.9-0.3-2-0.4-3.1-0.4c-1.5,0-2.8,0.9-2.8,2.1c0,1.3,1.1,2,2.6,2
			C212.2,179.8,213.8,179.1,214.2,177.6z"/>
		<path d="M218.2,175.7c0-2.9,2.5-5.4,5.4-5.4c1.4,0,2.7,0.6,3.7,1.5l-1,1c-0.7-0.7-1.6-1.2-2.6-1.2c-2.1,0-3.8,1.9-3.8,4.1
			c0,2.2,1.7,4.1,3.8,4.1c1,0,2-0.5,2.7-1.3l1,1c-1,1-2.3,1.6-3.7,1.6C220.7,181.1,218.2,178.6,218.2,175.7z"/>
		<path d="M234.9,180.4c-0.5,0.4-1.2,0.7-1.9,0.7c-1.5,0-2.5-1.1-2.5-2.6v-6.6h-1.6v-1.3h1.6v-2.8h1.5v2.8h2.5v1.3h-2.5v6.6
			c0,0.8,0.5,1.3,1.1,1.3c0.5,0,0.9-0.2,1.1-0.4L234.9,180.4z"/>
		<path d="M236.4,179.6l0.8-1.1c1.2,0.9,2.4,1.3,3.5,1.3c1.4,0,2.3-0.6,2.3-1.6c0-1.1-1.2-1.5-2.6-1.9c-2.5-0.7-3.5-1.5-3.5-2.9
			c0-1.9,1.6-3,3.6-3c1.3,0,2.6,0.4,3.7,1.2l-0.7,1.2c-1-0.7-2.1-1-3-1c-1.2,0-2.1,0.5-2.1,1.5c0,0.9,0.8,1.2,2.7,1.8
			c1.7,0.5,3.4,1.1,3.4,3c0,1.9-1.6,3.1-3.8,3.1C239.2,181.1,237.6,180.5,236.4,179.6z"/>
		<path d="M252.2,174c0-3.9,3.2-7.1,7-7.1c1.9,0,3.7,0.8,4.9,2.1l-1.1,1.1c-1-1.1-2.4-1.7-3.9-1.7c-3,0-5.5,2.6-5.5,5.7
			c0,3.1,2.5,5.7,5.5,5.7c1.5,0,2.9-0.7,3.9-1.7l1.1,1.1c-1.3,1.3-3,2.1-4.9,2.1C255.4,181.1,252.2,177.8,252.2,174z"/>
		<path d="M274.6,174.6v6.3h-1.5v-1.6c-0.7,1.2-2.3,1.9-3.6,1.9c-2.2,0-3.8-1.3-3.8-3.3c0-2.1,1.8-3.4,4.1-3.4
			c1.1,0,2.3,0.2,3.4,0.6v-0.4c0-1.4-0.6-3-2.8-3c-1,0-2.1,0.5-3,0.9l-0.6-1.2c1.5-0.7,2.7-1,3.7-1
			C273.3,170.3,274.6,172.1,274.6,174.6z M273.1,177.6V176c-0.9-0.3-2-0.4-3.1-0.4c-1.5,0-2.8,0.9-2.8,2.1c0,1.3,1.1,2,2.6,2
			C271.1,179.8,272.7,179.1,273.1,177.6z"/>
		<path d="M277.7,166.9h1.5v14h-1.5V166.9z"/>
		<path d="M281.7,175.7c0-2.9,2.5-5.4,5.4-5.4c1.4,0,2.7,0.6,3.7,1.5l-1,1c-0.7-0.7-1.6-1.2-2.6-1.2c-2.1,0-3.8,1.9-3.8,4.1
			c0,2.2,1.7,4.1,3.8,4.1c1,0,2-0.5,2.7-1.3l1,1c-1,1-2.3,1.6-3.7,1.6C284.1,181.1,281.7,178.6,281.7,175.7z"/>
		<path d="M301.8,170.5v10.3h-1.5v-1.7c-0.6,1.1-1.9,1.9-3.4,1.9c-2.3,0-3.9-1.7-3.9-4v-6.6h1.5v6.4c0,1.7,1.1,2.9,2.6,2.9
			c1.7,0,3.2-1.2,3.2-2.7v-6.6H301.8z"/>
		<path d="M304.9,166.9h1.5v14h-1.5V166.9z"/>
		<path d="M317.8,174.6v6.3h-1.5v-1.6c-0.7,1.2-2.3,1.9-3.6,1.9c-2.2,0-3.8-1.3-3.8-3.3c0-2.1,1.8-3.4,4.1-3.4
			c1.1,0,2.3,0.2,3.4,0.6v-0.4c0-1.4-0.6-3-2.8-3c-1,0-2.1,0.5-3,0.9l-0.6-1.2c1.5-0.7,2.7-1,3.7-1
			C316.4,170.3,317.8,172.1,317.8,174.6z M316.3,177.6V176c-0.9-0.3-2-0.4-3.1-0.4c-1.5,0-2.8,0.9-2.8,2.1c0,1.3,1.1,2,2.6,2
			C314.3,179.8,315.9,179.1,316.3,177.6z"/>
		<path d="M326.1,180.4c-0.5,0.4-1.2,0.7-1.9,0.7c-1.5,0-2.5-1.1-2.5-2.6v-6.6h-1.6v-1.3h1.6v-2.8h1.5v2.8h2.5v1.3h-2.5v6.6
			c0,0.8,0.5,1.3,1.1,1.3c0.5,0,0.9-0.2,1.1-0.4L326.1,180.4z"/>
		<path d="M328,167.6c0-0.5,0.4-1,1-1c0.5,0,1,0.5,1,1c0,0.5-0.4,1-1,1C328.4,168.6,328,168.2,328,167.6z M328.2,170.5h1.5v10.3
			h-1.5V170.5z"/>
		<path d="M332.2,175.7c0-2.9,2.5-5.4,5.4-5.4s5.3,2.5,5.3,5.4c0,2.9-2.4,5.4-5.3,5.4S332.2,178.6,332.2,175.7z M341.3,175.7
			c0-2.2-1.7-4.1-3.8-4.1c-2.1,0-3.8,1.9-3.8,4.1c0,2.2,1.7,4.1,3.8,4.1C339.6,179.8,341.3,177.9,341.3,175.7z"/>
		<path d="M354.1,174.3v6.6h-1.5v-6.4c0-1.7-1.1-2.9-2.6-2.9c-1.7,0-3.2,1.2-3.2,2.7v6.6h-1.5v-10.3h1.5v1.7
			c0.6-1.1,1.9-1.9,3.4-1.9C352.5,170.3,354.1,171.9,354.1,174.3z"/>
		<path d="M366.9,168.6h-4.6v-1.5h10.8v1.5h-4.6v12.2h-1.6V168.6z"/>
		<path d="M375,175.7c0-2.9,2.5-5.4,5.4-5.4s5.3,2.5,5.3,5.4c0,2.9-2.4,5.4-5.3,5.4S375,178.6,375,175.7z M384.1,175.7
			c0-2.2-1.7-4.1-3.8-4.1c-2.1,0-3.8,1.9-3.8,4.1c0,2.2,1.7,4.1,3.8,4.1C382.3,179.8,384.1,177.9,384.1,175.7z"/>
		<path d="M387.6,175.7c0-2.9,2.5-5.4,5.4-5.4s5.3,2.5,5.3,5.4c0,2.9-2.4,5.4-5.3,5.4S387.6,178.6,387.6,175.7z M396.7,175.7
			c0-2.2-1.7-4.1-3.8-4.1c-2.1,0-3.8,1.9-3.8,4.1c0,2.2,1.7,4.1,3.8,4.1C394.9,179.8,396.7,177.9,396.7,175.7z"/>
		<path d="M400.7,166.9h1.5v14h-1.5V166.9z"/>
	</g>
	<path class="st1" d="M154.3,71.2"/>
	<g>
		<path class="st2" d="M169,69.4L169,69.4c0.6-4.1,4-7.2,8.2-7.2c4.2,0,7.7,3.1,8.2,7.2h0.1v63.9h0c-0.3,4.3-3.9,7.6-8.2,7.6
			c-4.3,0-7.9-3.4-8.2-7.6h0V69.4z"/>
		<g>
			<path class="st2" d="M387,133.4L387,133.4c0.3,4.3,3.9,7.6,8.2,7.6c4.3,0,7.9-3.4,8.2-7.6h0V78.6H387V133.4z"/>
			<path class="st1" d="M421.1,62.2L421.1,62.2l-52.2,0v0.1c-4,0.5-7.2,4-7.2,8.2c0,4.2,3.1,7.7,7.2,8.2v0.1H387h16.4h17.7v0
				c4.2-0.3,7.6-3.9,7.6-8.2S425.4,62.5,421.1,62.2z"/>
		</g>
		<g>
			<path class="st1" d="M150.6,71.7C150.6,71.7,150.6,71.7,150.6,71.7c-5.9-1.3-10.5,4.8-12.2,6.8c0,0-1.7,2.2-4.2,5.4v49.5h0
				c0.3,4.3,3.9,7.6,8.2,7.6s7.9-3.4,8.2-7.6h0C150.7,133.4,150.6,71.7,150.6,71.7z"/>
			<path class="st3" d="M116.6,106.5c-0.5,0.5-0.9,0.9-1.4,1.2C115.7,107.4,116.2,107,116.6,106.5z"/>
			<path class="st2" d="M65.7,71.7C65.7,71.7,65.7,71.7,65.7,71.7C65.7,71.7,65.7,71.7,65.7,71.7l-0.1,61.6h0
				c0.3,4.3,3.9,7.6,8.2,7.6s7.9-3.4,8.2-7.6h0V83.9c-2.5-3.2-4.2-5.4-4.2-5.4C76.3,76.5,71.7,70.5,65.7,71.7z"/>
			<path class="st2" d="M65.9,71.1"/>
			<g>
				<path class="st3" d="M150.5,71.1c-1.1-4.7-5.9-8.7-11.3-8.9c-3.9-0.2-7.1,0.8-9.6,3.7c0,0-21.2,27.3-21.4,27.5c0,0,0,0,0,0
					c1.6,2,7.1,8.4,13,7.2c0,0,0,0,0,0c-0.1,0.2,9.1-11.7,13-16.7c2.5-3.2,4.2-5.4,4.2-5.4c1.6-2,6.2-8.1,12.2-6.8c0,0,0,0,0,0
					c0,0,0,0,0,0C150.6,71.5,150.5,71.2,150.5,71.1z"/>
				<path class="st4" d="M108.2,93.4C108.2,93.4,108.2,93.4,108.2,93.4c-0.2-0.2-21.4-27.5-21.4-27.5c-2.5-2.9-5.7-3.9-9.6-3.7
					c-5.4,0.2-10.2,4.2-11.3,8.9c0,0.1-0.1,0.5-0.1,0.6c0,0,0,0,0,0c0,0,0,0,0,0c5.9-1.3,10.5,4.8,12.2,6.8c0,0,1.7,2.2,4.2,5.4
					c6.2,7.9,17.1,21.9,17.1,21.9c2.5,2.9,5.3,4.4,8.9,4.4c2.6,0,4.7-0.6,7.1-2.5c0.4-0.4,0.9-0.8,1.4-1.2c1.3-1.3,2.7-3.1,4.2-5.4
					c0.1-0.2,0.3-0.4,0.4-0.5c0,0,0,0,0,0C115.3,101.8,109.8,95.4,108.2,93.4z"/>
			</g>
			<polygon class="st4" points="121.2,100.6 121.2,100.6 121.2,100.6 			"/>
		</g>
		<g>
			<g>
				<path class="st4" d="M222.7,81.2c4.8-4.4,11.6-7.1,18.6-7.1c10,0,19.2,5.6,23.9,14.6c1.7,3.3,5.8,4.6,9.2,2.9
					c3.3-1.7,4.6-5.8,2.9-9.2c-0.7-1.4-1.6-2.8-2.5-4.1c-6.4-5.7-15.2-9.2-24.9-9.2C238.6,69.1,228.9,73.8,222.7,81.2z"/>
				<path class="st4" d="M270.7,73.3"/>
				<path class="st4" d="M274.6,78.2"/>
			</g>
			<g>
				<path class="st2" d="M222.7,121.9c4.8,4.4,11.6,7.1,18.6,7.1c10,0,19.2-5.6,23.9-14.6c1.7-3.3,5.8-4.6,9.2-2.9
					c3.3,1.7,4.6,5.8,2.9,9.2c-0.7,1.4-1.6,2.8-2.5,4.1c-6.4,5.7-15.2,9.2-24.9,9.2C238.6,134,228.9,129.3,222.7,121.9z"/>
				<path class="st4" d="M270.7,129.9"/>
				<path class="st4" d="M274.6,125"/>
				<path class="st3" d="M249.8,134c-11.2,0-20.9-4.7-27.2-12.1c-4.5-5.4-7.2-12.1-7.4-19.5h0c0-0.3,0-1.5,0-1.8h0
					c0.2-7.4,2.9-14.1,7.4-19.5c6.2-7.4,15.9-12.1,27.2-12.1c9.7,0,18.5,3.5,24.9,9.2c0,0,0,0,0,0c0-0.1-0.1-0.1-0.1-0.2
					c-0.3-0.4-2.1-2.9-2.3-3.1c-0.5-0.6-1.6-1.8-1.6-1.8c-7.6-8.1-18.1-12.9-29.5-12.9c-22.4,0-40.6,18.4-40.6,41.1c0,0,0,0,0,0.1
					c0,0,0,0,0,0.1c0,22.7,18.2,41.1,40.6,41.1c11.3,0,21.9-4.8,29.5-12.9c0,0,1.1-1.2,1.6-1.8c0.2-0.2,2-2.7,2.3-3.1
					c0-0.1,0.1-0.1,0.1-0.2c0,0,0,0,0,0C268.3,130.5,259.5,134,249.8,134z"/>
			</g>
		</g>
		<g>
			<circle class="st1" cx="326.2" cy="118.4" r="10.6"/>
			<g>
				<path class="st2" d="M313.8,70l-27.4,59.9l0,0c-1.5,4,0.3,8.5,4.3,10.3c3.9,1.8,8.6,0.2,10.6-3.5l0,0l24.9-54.2l-0.8-1.8
					C324.1,78,320.6,70.2,313.8,70z"/>
				<path class="st4" d="M365.9,129.9L365.9,129.9c0,0-27.5-60-27.6-60c-2-3.8-4.9-6.4-9.2-7.4c-6-1.3-12.1,1.4-15,6.9
					c-0.1,0.1-0.3,0.5-0.3,0.6c0,0,0,0,0,0c0,0,0,0,0,0c0,0,0,0,0,0c6.8,0.2,10.3,8,11.5,10.6l0.8,1.8l24.8,54.2l0,0
					c2.1,3.7,6.7,5.3,10.6,3.5S367.4,133.9,365.9,129.9z"/>
			</g>
		</g>
	</g>
</g>
</svg>
