<?xml version="1.0" encoding="UTF-8" standalone="no"?>
<!-- Generator: Adobe Illustrator 25.0.0, SVG Export Plug-In . SVG Version: 6.00 Build 0)  -->

<svg
   version="1.1"
   id="Layer_1"
   x="0px"
   y="0px"
   viewBox="0 0 200 70"
   xml:space="preserve"
   sodipodi:docname="micat_logo.svg"
   width="200"
   height="70"
   inkscape:version="1.2.2 (b0a8486541, 2022-12-01)"
   inkscape:export-filename="micat_logo.png"
   inkscape:export-xdpi="96"
   inkscape:export-ydpi="96"
   xmlns:inkscape="http://www.inkscape.org/namespaces/inkscape"
   xmlns:sodipodi="http://sodipodi.sourceforge.net/DTD/sodipodi-0.dtd"
   xmlns="http://www.w3.org/2000/svg"
   xmlns:svg="http://www.w3.org/2000/svg"><defs
   id="defs137" /><sodipodi:namedview
   id="namedview135"
   pagecolor="#ffffff"
   bordercolor="#666666"
   borderopacity="1.0"
   inkscape:showpageshadow="2"
   inkscape:pageopacity="0.0"
   inkscape:pagecheckerboard="0"
   inkscape:deskcolor="#d1d1d1"
   showgrid="false"
   inkscape:zoom="2.4457513"
   inkscape:cx="246.75444"
   inkscape:cy="123.07057"
   inkscape:window-width="2483"
   inkscape:window-height="1417"
   inkscape:window-x="2629"
   inkscape:window-y="-8"
   inkscape:window-maximized="1"
   inkscape:current-layer="Layer_1" />
<style
   type="text/css"
   id="style2">
	.st0{fill:none;}
	.st1{fill:#F8D905;}
	.st2{fill:#1494B2;}
	.st3{fill:#2DBFCC;}
	.st4{fill:#F47920;}
</style>
<rect
   x="0.1"
   y="0.40000001"
   class="st0"
   width="492.10001"
   height="245.3"
   id="rect4" />
<rect
   x="2412.3"
   y="-170.5"
   class="st0"
   width="839.90002"
   height="594.5"
   id="rect6" />
<rect
   x="4135.7998"
   y="-169.2"
   class="st0"
   width="839.90002"
   height="594.5"
   id="rect8" />
<g
   id="g132"
   transform="matrix(0.55081245,0,0,0.54957608,-36.133297,-33.08448)">
	<g
   id="g70">
		<path
   d="m 92.1,167.1 h 1.6 l 5.1,9.6 5.1,-9.6 h 1.6 v 13.7 h -1.6 v -10.4 l -5.1,9.6 -5.1,-9.6 v 10.4 h -1.6 z"
   id="path10" />
		<path
   d="m 117.6,170.5 v 10.3 h -1.5 v -1.7 c -0.6,1.1 -1.9,1.9 -3.4,1.9 -2.3,0 -3.9,-1.7 -3.9,-4 v -6.6 h 1.5 v 6.4 c 0,1.7 1.1,2.9 2.6,2.9 1.7,0 3.2,-1.2 3.2,-2.7 v -6.6 h 1.5 z"
   id="path12" />
		<path
   d="m 120.7,166.9 h 1.5 v 14 h -1.5 z"
   id="path14" />
		<path
   d="m 130.5,180.4 c -0.5,0.4 -1.2,0.7 -1.9,0.7 -1.5,0 -2.5,-1.1 -2.5,-2.6 v -6.6 h -1.6 v -1.3 h 1.6 v -2.8 h 1.5 v 2.8 h 2.5 v 1.3 h -2.5 v 6.6 c 0,0.8 0.5,1.3 1.1,1.3 0.5,0 0.9,-0.2 1.1,-0.4 z"
   id="path16" />
		<path
   d="m 132.3,167.6 c 0,-0.5 0.4,-1 1,-1 0.5,0 1,0.5 1,1 0,0.5 -0.4,1 -1,1 -0.5,0 -1,-0.4 -1,-1 z m 0.3,2.9 h 1.5 v 10.3 h -1.5 z"
   id="path18" />
		<path
   d="m 147.2,175.7 c 0,3.2 -2,5.4 -4.8,5.4 -1.7,0 -3,-0.8 -3.8,-2.2 v 5.4 h -1.5 v -13.8 h 1.5 v 1.9 c 0.8,-1.4 2.1,-2.2 3.8,-2.2 2.8,0.1 4.8,2.3 4.8,5.5 z m -1.6,0 c 0,-2.4 -1.4,-4.1 -3.5,-4.1 -2,0 -3.5,1.7 -3.5,4.1 0,2.4 1.4,4.1 3.5,4.1 2.1,0 3.5,-1.7 3.5,-4.1 z"
   id="path20" />
		<path
   d="m 149.8,166.9 h 1.5 v 14 h -1.5 z"
   id="path22" />
		<path
   d="m 162.2,178.5 0.9,1 c -0.9,1 -2.7,1.6 -4.2,1.6 -2.8,0 -5.2,-2.3 -5.2,-5.4 0,-3.1 2.3,-5.4 5.1,-5.4 3.1,0 4.9,2.4 4.9,6 h -8.4 c 0.2,2 1.6,3.5 3.7,3.5 1.2,0 2.6,-0.6 3.2,-1.3 z m -6.9,-3.6 h 7 c -0.2,-1.9 -1.3,-3.3 -3.4,-3.3 -1.8,0 -3.3,1.3 -3.6,3.3 z"
   id="path24" />
		<path
   d="m 172.1,167.1 h 1.6 v 13.7 h -1.6 z"
   id="path26" />
		<path
   d="m 191.6,174.3 v 6.6 h -1.5 v -6.4 c 0,-1.7 -1,-2.9 -2.4,-2.9 -1.6,0 -2.8,1.1 -2.8,2.7 v 6.6 h -1.5 v -6.4 c 0,-1.7 -1,-2.9 -2.4,-2.9 -1.6,0 -2.8,1.1 -2.8,2.7 v 6.6 h -1.5 v -10.3 h 1.5 v 1.5 c 0.5,-1.1 1.6,-1.8 3,-1.8 1.6,0 2.8,0.9 3.3,2.2 0.4,-1.3 1.8,-2.2 3.3,-2.2 2.2,0 3.8,1.6 3.8,4 z"
   id="path28" />
		<path
   d="m 204.7,175.7 c 0,3.2 -2,5.4 -4.8,5.4 -1.7,0 -3,-0.8 -3.8,-2.2 v 5.4 h -1.5 v -13.8 h 1.5 v 1.9 c 0.8,-1.4 2.1,-2.2 3.8,-2.2 2.8,0.1 4.8,2.3 4.8,5.5 z m -1.5,0 c 0,-2.4 -1.4,-4.1 -3.5,-4.1 -2,0 -3.5,1.7 -3.5,4.1 0,2.4 1.4,4.1 3.5,4.1 2,0 3.5,-1.7 3.5,-4.1 z"
   id="path30" />
		<path
   d="m 215.7,174.6 v 6.3 h -1.5 v -1.6 c -0.7,1.2 -2.3,1.9 -3.6,1.9 -2.2,0 -3.8,-1.3 -3.8,-3.3 0,-2.1 1.8,-3.4 4.1,-3.4 1.1,0 2.3,0.2 3.4,0.6 v -0.4 c 0,-1.4 -0.6,-3 -2.8,-3 -1,0 -2.1,0.5 -3,0.9 l -0.6,-1.2 c 1.5,-0.7 2.7,-1 3.7,-1 2.7,-0.1 4.1,1.7 4.1,4.2 z m -1.5,3 V 176 c -0.9,-0.3 -2,-0.4 -3.1,-0.4 -1.5,0 -2.8,0.9 -2.8,2.1 0,1.3 1.1,2 2.6,2 1.3,0.1 2.9,-0.6 3.3,-2.1 z"
   id="path32" />
		<path
   d="m 218.2,175.7 c 0,-2.9 2.5,-5.4 5.4,-5.4 1.4,0 2.7,0.6 3.7,1.5 l -1,1 c -0.7,-0.7 -1.6,-1.2 -2.6,-1.2 -2.1,0 -3.8,1.9 -3.8,4.1 0,2.2 1.7,4.1 3.8,4.1 1,0 2,-0.5 2.7,-1.3 l 1,1 c -1,1 -2.3,1.6 -3.7,1.6 -3,0 -5.5,-2.5 -5.5,-5.4 z"
   id="path34" />
		<path
   d="m 234.9,180.4 c -0.5,0.4 -1.2,0.7 -1.9,0.7 -1.5,0 -2.5,-1.1 -2.5,-2.6 v -6.6 h -1.6 v -1.3 h 1.6 v -2.8 h 1.5 v 2.8 h 2.5 v 1.3 H 232 v 6.6 c 0,0.8 0.5,1.3 1.1,1.3 0.5,0 0.9,-0.2 1.1,-0.4 z"
   id="path36" />
		<path
   d="m 236.4,179.6 0.8,-1.1 c 1.2,0.9 2.4,1.3 3.5,1.3 1.4,0 2.3,-0.6 2.3,-1.6 0,-1.1 -1.2,-1.5 -2.6,-1.9 -2.5,-0.7 -3.5,-1.5 -3.5,-2.9 0,-1.9 1.6,-3 3.6,-3 1.3,0 2.6,0.4 3.7,1.2 l -0.7,1.2 c -1,-0.7 -2.1,-1 -3,-1 -1.2,0 -2.1,0.5 -2.1,1.5 0,0.9 0.8,1.2 2.7,1.8 1.7,0.5 3.4,1.1 3.4,3 0,1.9 -1.6,3.1 -3.8,3.1 -1.5,-0.1 -3.1,-0.7 -4.3,-1.6 z"
   id="path38" />
		<path
   d="m 252.2,174 c 0,-3.9 3.2,-7.1 7,-7.1 1.9,0 3.7,0.8 4.9,2.1 l -1.1,1.1 c -1,-1.1 -2.4,-1.7 -3.9,-1.7 -3,0 -5.5,2.6 -5.5,5.7 0,3.1 2.5,5.7 5.5,5.7 1.5,0 2.9,-0.7 3.9,-1.7 l 1.1,1.1 c -1.3,1.3 -3,2.1 -4.9,2.1 -3.8,-0.2 -7,-3.5 -7,-7.3 z"
   id="path40" />
		<path
   d="m 274.6,174.6 v 6.3 h -1.5 v -1.6 c -0.7,1.2 -2.3,1.9 -3.6,1.9 -2.2,0 -3.8,-1.3 -3.8,-3.3 0,-2.1 1.8,-3.4 4.1,-3.4 1.1,0 2.3,0.2 3.4,0.6 v -0.4 c 0,-1.4 -0.6,-3 -2.8,-3 -1,0 -2.1,0.5 -3,0.9 l -0.6,-1.2 c 1.5,-0.7 2.7,-1 3.7,-1 2.8,-0.1 4.1,1.7 4.1,4.2 z m -1.5,3 V 176 c -0.9,-0.3 -2,-0.4 -3.1,-0.4 -1.5,0 -2.8,0.9 -2.8,2.1 0,1.3 1.1,2 2.6,2 1.3,0.1 2.9,-0.6 3.3,-2.1 z"
   id="path42" />
		<path
   d="m 277.7,166.9 h 1.5 v 14 h -1.5 z"
   id="path44" />
		<path
   d="m 281.7,175.7 c 0,-2.9 2.5,-5.4 5.4,-5.4 1.4,0 2.7,0.6 3.7,1.5 l -1,1 c -0.7,-0.7 -1.6,-1.2 -2.6,-1.2 -2.1,0 -3.8,1.9 -3.8,4.1 0,2.2 1.7,4.1 3.8,4.1 1,0 2,-0.5 2.7,-1.3 l 1,1 c -1,1 -2.3,1.6 -3.7,1.6 -3.1,0 -5.5,-2.5 -5.5,-5.4 z"
   id="path46" />
		<path
   d="m 301.8,170.5 v 10.3 h -1.5 v -1.7 c -0.6,1.1 -1.9,1.9 -3.4,1.9 -2.3,0 -3.9,-1.7 -3.9,-4 v -6.6 h 1.5 v 6.4 c 0,1.7 1.1,2.9 2.6,2.9 1.7,0 3.2,-1.2 3.2,-2.7 v -6.6 h 1.5 z"
   id="path48" />
		<path
   d="m 304.9,166.9 h 1.5 v 14 h -1.5 z"
   id="path50" />
		<path
   d="m 317.8,174.6 v 6.3 h -1.5 v -1.6 c -0.7,1.2 -2.3,1.9 -3.6,1.9 -2.2,0 -3.8,-1.3 -3.8,-3.3 0,-2.1 1.8,-3.4 4.1,-3.4 1.1,0 2.3,0.2 3.4,0.6 v -0.4 c 0,-1.4 -0.6,-3 -2.8,-3 -1,0 -2.1,0.5 -3,0.9 l -0.6,-1.2 c 1.5,-0.7 2.7,-1 3.7,-1 2.7,-0.1 4.1,1.7 4.1,4.2 z m -1.5,3 V 176 c -0.9,-0.3 -2,-0.4 -3.1,-0.4 -1.5,0 -2.8,0.9 -2.8,2.1 0,1.3 1.1,2 2.6,2 1.3,0.1 2.9,-0.6 3.3,-2.1 z"
   id="path52" />
		<path
   d="m 326.1,180.4 c -0.5,0.4 -1.2,0.7 -1.9,0.7 -1.5,0 -2.5,-1.1 -2.5,-2.6 v -6.6 h -1.6 v -1.3 h 1.6 v -2.8 h 1.5 v 2.8 h 2.5 v 1.3 h -2.5 v 6.6 c 0,0.8 0.5,1.3 1.1,1.3 0.5,0 0.9,-0.2 1.1,-0.4 z"
   id="path54" />
		<path
   d="m 328,167.6 c 0,-0.5 0.4,-1 1,-1 0.5,0 1,0.5 1,1 0,0.5 -0.4,1 -1,1 -0.6,0 -1,-0.4 -1,-1 z m 0.2,2.9 h 1.5 v 10.3 h -1.5 z"
   id="path56" />
		<path
   d="m 332.2,175.7 c 0,-2.9 2.5,-5.4 5.4,-5.4 2.9,0 5.3,2.5 5.3,5.4 0,2.9 -2.4,5.4 -5.3,5.4 -2.9,0 -5.4,-2.5 -5.4,-5.4 z m 9.1,0 c 0,-2.2 -1.7,-4.1 -3.8,-4.1 -2.1,0 -3.8,1.9 -3.8,4.1 0,2.2 1.7,4.1 3.8,4.1 2.1,0 3.8,-1.9 3.8,-4.1 z"
   id="path58" />
		<path
   d="m 354.1,174.3 v 6.6 h -1.5 v -6.4 c 0,-1.7 -1.1,-2.9 -2.6,-2.9 -1.7,0 -3.2,1.2 -3.2,2.7 v 6.6 h -1.5 v -10.3 h 1.5 v 1.7 c 0.6,-1.1 1.9,-1.9 3.4,-1.9 2.3,-0.1 3.9,1.5 3.9,3.9 z"
   id="path60" />
		<path
   d="m 366.9,168.6 h -4.6 v -1.5 h 10.8 v 1.5 h -4.6 v 12.2 h -1.6 z"
   id="path62" />
		<path
   d="m 375,175.7 c 0,-2.9 2.5,-5.4 5.4,-5.4 2.9,0 5.3,2.5 5.3,5.4 0,2.9 -2.4,5.4 -5.3,5.4 -2.9,0 -5.4,-2.5 -5.4,-5.4 z m 9.1,0 c 0,-2.2 -1.7,-4.1 -3.8,-4.1 -2.1,0 -3.8,1.9 -3.8,4.1 0,2.2 1.7,4.1 3.8,4.1 2,0 3.8,-1.9 3.8,-4.1 z"
   id="path64" />
		<path
   d="m 387.6,175.7 c 0,-2.9 2.5,-5.4 5.4,-5.4 2.9,0 5.3,2.5 5.3,5.4 0,2.9 -2.4,5.4 -5.3,5.4 -2.9,0 -5.4,-2.5 -5.4,-5.4 z m 9.1,0 c 0,-2.2 -1.7,-4.1 -3.8,-4.1 -2.1,0 -3.8,1.9 -3.8,4.1 0,2.2 1.7,4.1 3.8,4.1 2,0 3.8,-1.9 3.8,-4.1 z"
   id="path66" />
		<path
   d="m 400.7,166.9 h 1.5 v 14 h -1.5 z"
   id="path68" />
	</g>
	<path
   class="st1"
   d="M 154.3,71.2"
   id="path72" />
	<g
   id="g130">
		<path
   class="st2"
   d="m 169,69.4 v 0 c 0.6,-4.1 4,-7.2 8.2,-7.2 4.2,0 7.7,3.1 8.2,7.2 h 0.1 v 63.9 0 c -0.3,4.3 -3.9,7.6 -8.2,7.6 -4.3,0 -7.9,-3.4 -8.2,-7.6 v 0 -63.9 z"
   id="path74" />
		<g
   id="g80">
			<path
   class="st2"
   d="m 387,133.4 v 0 c 0.3,4.3 3.9,7.6 8.2,7.6 4.3,0 7.9,-3.4 8.2,-7.6 v 0 -54.8 H 387 Z"
   id="path76" />
			<path
   class="st1"
   d="m 421.1,62.2 v 0 h -52.2 v 0.1 c -4,0.5 -7.2,4 -7.2,8.2 0,4.2 3.1,7.7 7.2,8.2 v 0.1 h 18.1 16.4 17.7 v 0 c 4.2,-0.3 7.6,-3.9 7.6,-8.2 0,-4.3 -3.3,-8.1 -7.6,-8.4 z"
   id="path78" />
		</g>
		<g
   id="g98">
			<path
   class="st1"
   d="m 150.6,71.7 c 0,0 0,0 0,0 -5.9,-1.3 -10.5,4.8 -12.2,6.8 0,0 -1.7,2.2 -4.2,5.4 v 49.5 0 c 0.3,4.3 3.9,7.6 8.2,7.6 4.3,0 7.9,-3.4 8.2,-7.6 v 0 c 0.1,0 0,-61.7 0,-61.7 z"
   id="path82" />
			<path
   class="st3"
   d="m 116.6,106.5 c -0.5,0.5 -0.9,0.9 -1.4,1.2 0.5,-0.3 1,-0.7 1.4,-1.2 z"
   id="path84" />
			<path
   class="st2"
   d="m 65.7,71.7 c 0,0 0,0 0,0 0,0 0,0 0,0 l -0.1,61.6 v 0 c 0.3,4.3 3.9,7.6 8.2,7.6 4.3,0 7.9,-3.4 8.2,-7.6 v 0 -49.4 c -2.5,-3.2 -4.2,-5.4 -4.2,-5.4 -1.5,-2 -6.1,-8 -12.1,-6.8 z"
   id="path86" />
			<path
   class="st2"
   d="M 65.9,71.1"
   id="path88" />
			<g
   id="g94">
				<path
   class="st3"
   d="m 150.5,71.1 c -1.1,-4.7 -5.9,-8.7 -11.3,-8.9 -3.9,-0.2 -7.1,0.8 -9.6,3.7 0,0 -21.2,27.3 -21.4,27.5 0,0 0,0 0,0 1.6,2 7.1,8.4 13,7.2 0,0 0,0 0,0 -0.1,0.2 9.1,-11.7 13,-16.7 2.5,-3.2 4.2,-5.4 4.2,-5.4 1.6,-2 6.2,-8.1 12.2,-6.8 0,0 0,0 0,0 0,0 0,0 0,0 0,-0.2 -0.1,-0.5 -0.1,-0.6 z"
   id="path90" />
				<path
   class="st4"
   d="m 108.2,93.4 c 0,0 0,0 0,0 C 108,93.2 86.8,65.9 86.8,65.9 84.3,63 81.1,62 77.2,62.2 71.8,62.4 67,66.4 65.9,71.1 c 0,0.1 -0.1,0.5 -0.1,0.6 0,0 0,0 0,0 0,0 0,0 0,0 5.9,-1.3 10.5,4.8 12.2,6.8 0,0 1.7,2.2 4.2,5.4 6.2,7.9 17.1,21.9 17.1,21.9 2.5,2.9 5.3,4.4 8.9,4.4 2.6,0 4.7,-0.6 7.1,-2.5 0.4,-0.4 0.9,-0.8 1.4,-1.2 1.3,-1.3 2.7,-3.1 4.2,-5.4 0.1,-0.2 0.3,-0.4 0.4,-0.5 0,0 0,0 0,0 -6,1.2 -11.5,-5.2 -13.1,-7.2 z"
   id="path92" />
			</g>
			<polygon
   class="st4"
   points=""
   id="polygon96" />
		</g>
		<g
   id="g118">
			<g
   id="g106">
				<path
   class="st4"
   d="m 222.7,81.2 c 4.8,-4.4 11.6,-7.1 18.6,-7.1 10,0 19.2,5.6 23.9,14.6 1.7,3.3 5.8,4.6 9.2,2.9 3.3,-1.7 4.6,-5.8 2.9,-9.2 -0.7,-1.4 -1.6,-2.8 -2.5,-4.1 -6.4,-5.7 -15.2,-9.2 -24.9,-9.2 -11.3,0 -21,4.7 -27.2,12.1 z"
   id="path100" />
				<path
   class="st4"
   d="M 270.7,73.3"
   id="path102" />
				<path
   class="st4"
   d="M 274.6,78.2"
   id="path104" />
			</g>
			<g
   id="g116">
				<path
   class="st2"
   d="m 222.7,121.9 c 4.8,4.4 11.6,7.1 18.6,7.1 10,0 19.2,-5.6 23.9,-14.6 1.7,-3.3 5.8,-4.6 9.2,-2.9 3.3,1.7 4.6,5.8 2.9,9.2 -0.7,1.4 -1.6,2.8 -2.5,4.1 -6.4,5.7 -15.2,9.2 -24.9,9.2 -11.3,0 -21,-4.7 -27.2,-12.1 z"
   id="path108" />
				<path
   class="st4"
   d="M 270.7,129.9"
   id="path110" />
				<path
   class="st4"
   d="M 274.6,125"
   id="path112" />
				<path
   class="st3"
   d="m 249.8,134 c -11.2,0 -20.9,-4.7 -27.2,-12.1 -4.5,-5.4 -7.2,-12.1 -7.4,-19.5 v 0 c 0,-0.3 0,-1.5 0,-1.8 v 0 c 0.2,-7.4 2.9,-14.1 7.4,-19.5 6.2,-7.4 15.9,-12.1 27.2,-12.1 9.7,0 18.5,3.5 24.9,9.2 0,0 0,0 0,0 0,-0.1 -0.1,-0.1 -0.1,-0.2 -0.3,-0.4 -2.1,-2.9 -2.3,-3.1 -0.5,-0.6 -1.6,-1.8 -1.6,-1.8 -7.6,-8.1 -18.1,-12.9 -29.5,-12.9 -22.4,0 -40.6,18.4 -40.6,41.1 0,0 0,0 0,0.1 0,0 0,0 0,0.1 0,22.7 18.2,41.1 40.6,41.1 11.3,0 21.9,-4.8 29.5,-12.9 0,0 1.1,-1.2 1.6,-1.8 0.2,-0.2 2,-2.7 2.3,-3.1 0,-0.1 0.1,-0.1 0.1,-0.2 0,0 0,0 0,0 -6.4,5.9 -15.2,9.4 -24.9,9.4 z"
   id="path114" />
			</g>
		</g>
		<g
   id="g128">
			<circle
   class="st1"
   cx="326.20001"
   cy="118.4"
   r="10.6"
   id="circle120" />
			<g
   id="g126">
				<path
   class="st2"
   d="m 313.8,70 -27.4,59.9 v 0 c -1.5,4 0.3,8.5 4.3,10.3 3.9,1.8 8.6,0.2 10.6,-3.5 v 0 l 24.9,-54.2 -0.8,-1.8 C 324.1,78 320.6,70.2 313.8,70 Z"
   id="path122" />
				<path
   class="st4"
   d="m 365.9,129.9 v 0 c 0,0 -27.5,-60 -27.6,-60 -2,-3.8 -4.9,-6.4 -9.2,-7.4 -6,-1.3 -12.1,1.4 -15,6.9 -0.1,0.1 -0.3,0.5 -0.3,0.6 0,0 0,0 0,0 0,0 0,0 0,0 0,0 0,0 0,0 6.8,0.2 10.3,8 11.5,10.6 l 0.8,1.8 24.8,54.2 v 0 c 2.1,3.7 6.7,5.3 10.6,3.5 3.9,-1.8 5.9,-6.2 4.4,-10.2 z"
   id="path124" />
			</g>
		</g>
	</g>
</g>
</svg>
